<svg width="102" height="42" viewBox="0 0 102 42" fill="none" xmlns="http://www.w3.org/2000/svg">
<g opacity="0.75">
<path d="M6.66296 1H9.74216L1 10.0851V6.88512L6.66296 1Z" fill="#262626"/>
<path d="M1 15.5454L14.9963 1H18.0755L1 18.7454V15.5454Z" fill="#262626"/>
<path d="M1 24.2056L23.3296 1H26.4088L1 27.4056V24.2056Z" fill="#262626"/>
<path d="M1 32.8659L31.663 1H34.7422L1 36.0659V32.8659Z" fill="#262626"/>
<path d="M1.50627 41L39.9963 1H43.0755L4.58547 41H1.50627Z" fill="#262626"/>
<path d="M9.83961 41L48.3296 1H51.4088L12.9188 41H9.83961Z" fill="#262626"/>
<path d="M18.1729 41L56.663 1H59.7422L21.2521 41H18.1729Z" fill="#262626"/>
<path d="M26.5063 41L64.9963 1H68.0755L29.5855 41H26.5063Z" fill="#262626"/>
<path d="M34.8396 41L73.3296 1H76.4088L37.9188 41H34.8396Z" fill="#262626"/>
<path d="M43.1729 41L81.663 1H84.7422L46.2521 41H43.1729Z" fill="#262626"/>
<path d="M51.5063 41L89.9963 1H93.0755L54.5855 41H51.5063Z" fill="#262626"/>
<path d="M59.8396 41L98.3296 1H101V1.42486L62.9188 41H59.8396Z" fill="#262626"/>
<path d="M68.1729 41L101 6.88512V10.0851L71.2521 41H68.1729Z" fill="#262626"/>
<path d="M76.5063 41L101 15.5454V18.7454L79.5855 41H76.5063Z" fill="#262626"/>
<path d="M84.8396 41L101 24.2056V27.4056L87.9188 41H84.8396Z" fill="#262626"/>
<path d="M93.173 41L101 32.8659V36.0659L96.2522 41H93.173Z" fill="#262626"/>
<path d="M6.66296 1H9.74216L1 10.0851V6.88512L6.66296 1Z" stroke="#262626"/>
<path d="M1 15.5454L14.9963 1H18.0755L1 18.7454V15.5454Z" stroke="#262626"/>
<path d="M1 24.2056L23.3296 1H26.4088L1 27.4056V24.2056Z" stroke="#262626"/>
<path d="M1 32.8659L31.663 1H34.7422L1 36.0659V32.8659Z" stroke="#262626"/>
<path d="M1.50627 41L39.9963 1H43.0755L4.58547 41H1.50627Z" stroke="#262626"/>
<path d="M9.83961 41L48.3296 1H51.4088L12.9188 41H9.83961Z" stroke="#262626"/>
<path d="M18.1729 41L56.663 1H59.7422L21.2521 41H18.1729Z" stroke="#262626"/>
<path d="M26.5063 41L64.9963 1H68.0755L29.5855 41H26.5063Z" stroke="#262626"/>
<path d="M34.8396 41L73.3296 1H76.4088L37.9188 41H34.8396Z" stroke="#262626"/>
<path d="M43.1729 41L81.663 1H84.7422L46.2521 41H43.1729Z" stroke="#262626"/>
<path d="M51.5063 41L89.9963 1H93.0755L54.5855 41H51.5063Z" stroke="#262626"/>
<path d="M59.8396 41L98.3296 1H101V1.42486L62.9188 41H59.8396Z" stroke="#262626"/>
<path d="M68.1729 41L101 6.88512V10.0851L71.2521 41H68.1729Z" stroke="#262626"/>
<path d="M76.5063 41L101 15.5454V18.7454L79.5855 41H76.5063Z" stroke="#262626"/>
<path d="M84.8396 41L101 24.2056V27.4056L87.9188 41H84.8396Z" stroke="#262626"/>
<path d="M93.173 41L101 32.8659V36.0659L96.2522 41H93.173Z" stroke="#262626"/>
</g>
</svg>
